{
    "asset" : {
        "generator" : "Khronos glTF Blender I/O v3.2.40",
        "version" : "2.0"
    },
    "scene" : 0,
    "scenes" : [
        {
            "name" : "Scene",
            "nodes" : [
                0,
                1,
                2,
                3,
                4,
                5,
                6,
                7
            ]
        }
    ],
    "nodes" : [
        {
            "mesh" : 0,
            "name" : "Terrain",
            "scale" : [
                20,
                20,
                20
            ]
        },
        {
            "mesh" : 1,
            "name" : "Sky"
        },
        {
            "mesh" : 2,
            "name" : "Rock",
            "rotation" : [
                0,
                0.16586598753929138,
                0,
                0.9861482977867126
            ],
            "translation" : [
                -5.707371234893799,
                0,
                2.9323253631591797
            ]
        },
        {
            "mesh" : 3,
            "name" : "Rock.001",
            "rotation" : [
                0,
                0.9851928949356079,
                0,
                0.17144975066184998
            ],
            "scale" : [
                1.528058409690857,
                1.528058409690857,
                1.528058409690857
            ],
            "translation" : [
                -3.434630870819092,
                0,
                -6.840607643127441
            ]
        },
        {
            "mesh" : 4,
            "name" : "Rock.002",
            "rotation" : [
                0,
                -0.4219256043434143,
                0,
                0.9066304564476013
            ],
            "scale" : [
                0.5928901433944702,
                0.5928901433944702,
                0.5928901433944702
            ],
            "translation" : [
                -11.387438774108887,
                0,
                -2.024268627166748
            ]
        },
        {
            "mesh" : 5,
            "name" : "Rock.003",
            "rotation" : [
                0,
                -0.7648357152938843,
                0,
                0.6442254185676575
            ],
            "translation" : [
                3.6792173385620117,
                0,
                5.612826347351074
            ]
        },
        {
            "mesh" : 6,
            "name" : "Rock.004",
            "rotation" : [
                0,
                0.3532782196998596,
                0,
                0.9355183243751526
            ],
            "scale" : [
                1.528058409690857,
                1.528058409690857,
                1.528058409690857
            ],
            "translation" : [
                11.139060974121094,
                0,
                12.322990417480469
            ]
        },
        {
            "mesh" : 7,
            "name" : "Rock.005",
            "rotation" : [
                0,
                -0.9952208995819092,
                0,
                0.09765009582042694
            ],
            "scale" : [
                0.5928901433944702,
                0.5928901433944702,
                0.5928901433944702
            ],
            "translation" : [
                10.762709617614746,
                0,
                3.0330700874328613
            ]
        }
    ],
    "materials" : [
        {
            "doubleSided" : true,
            "name" : "Green",
            "pbrMetallicRoughness" : {
                "baseColorFactor" : [
                    0,
                    0.8000000715255737,
                    0.0120929554104805,
                    1
                ],
                "metallicFactor" : 0
            }
        },
        {
            "name" : "Sky",
            "pbrMetallicRoughness" : {
                "baseColorFactor" : [
                    0,
                    0.7526494264602661,
                    0.8000000715255737,
                    1
                ],
                "metallicFactor" : 0
            }
        },
        {
            "doubleSided" : true,
            "name" : "Rock",
            "pbrMetallicRoughness" : {
                "baseColorFactor" : [
                    0.2827586531639099,
                    0.1537366658449173,
                    0.04710977151989937,
                    1
                ],
                "metallicFactor" : 0,
                "roughnessFactor" : 0.5
            }
        }
    ],
    "meshes" : [
        {
            "name" : "\u5e73\u9762",
            "primitives" : [
                {
                    "attributes" : {
                        "POSITION" : 0,
                        "NORMAL" : 1,
                        "TEXCOORD_0" : 2
                    },
                    "indices" : 3,
                    "material" : 0
                }
            ]
        },
        {
            "name" : "\u7acb\u65b9\u4f53",
            "primitives" : [
                {
                    "attributes" : {
                        "POSITION" : 4,
                        "NORMAL" : 5,
                        "TEXCOORD_0" : 6
                    },
                    "indices" : 7,
                    "material" : 1
                }
            ]
        },
        {
            "name" : "\u7acb\u65b9\u4f53.001",
            "primitives" : [
                {
                    "attributes" : {
                        "POSITION" : 8,
                        "NORMAL" : 9,
                        "TEXCOORD_0" : 10
                    },
                    "indices" : 11,
                    "material" : 2
                }
            ]
        },
        {
            "name" : "\u7acb\u65b9\u4f53.002",
            "primitives" : [
                {
                    "attributes" : {
                        "POSITION" : 12,
                        "NORMAL" : 13,
                        "TEXCOORD_0" : 14
                    },
                    "indices" : 11,
                    "material" : 2
                }
            ]
        },
        {
            "name" : "\u7acb\u65b9\u4f53.003",
            "primitives" : [
                {
                    "attributes" : {
                        "POSITION" : 15,
                        "NORMAL" : 16,
                        "TEXCOORD_0" : 17
                    },
                    "indices" : 11,
                    "material" : 2
                }
            ]
        },
        {
            "name" : "\u7acb\u65b9\u4f53.004",
            "primitives" : [
                {
                    "attributes" : {
                        "POSITION" : 18,
                        "NORMAL" : 19,
                        "TEXCOORD_0" : 20
                    },
                    "indices" : 11,
                    "material" : 2
                }
            ]
        },
        {
            "name" : "\u7acb\u65b9\u4f53.005",
            "primitives" : [
                {
                    "attributes" : {
                        "POSITION" : 21,
                        "NORMAL" : 22,
                        "TEXCOORD_0" : 23
                    },
                    "indices" : 11,
                    "material" : 2
                }
            ]
        },
        {
            "name" : "\u7acb\u65b9\u4f53.006",
            "primitives" : [
                {
                    "attributes" : {
                        "POSITION" : 24,
                        "NORMAL" : 25,
                        "TEXCOORD_0" : 26
                    },
                    "indices" : 11,
                    "material" : 2
                }
            ]
        }
    ],
    "accessors" : [
        {
            "bufferView" : 0,
            "componentType" : 5126,
            "count" : 4,
            "max" : [
                1,
                0,
                1
            ],
            "min" : [
                -1,
                0,
                -1
            ],
            "type" : "VEC3"
        },
        {
            "bufferView" : 1,
            "componentType" : 5126,
            "count" : 4,
            "type" : "VEC3"
        },
        {
            "bufferView" : 2,
            "componentType" : 5126,
            "count" : 4,
            "type" : "VEC2"
        },
        {
            "bufferView" : 3,
            "componentType" : 5123,
            "count" : 6,
            "type" : "SCALAR"
        },
        {
            "bufferView" : 4,
            "componentType" : 5126,
            "count" : 24,
            "max" : [
                20,
                20,
                20
            ],
            "min" : [
                -20,
                -20,
                -20
            ],
            "type" : "VEC3"
        },
        {
            "bufferView" : 5,
            "componentType" : 5126,
            "count" : 24,
            "type" : "VEC3"
        },
        {
            "bufferView" : 6,
            "componentType" : 5126,
            "count" : 24,
            "type" : "VEC2"
        },
        {
            "bufferView" : 7,
            "componentType" : 5123,
            "count" : 36,
            "type" : "SCALAR"
        },
        {
            "bufferView" : 8,
            "componentType" : 5126,
            "count" : 24,
            "max" : [
                1,
                1,
                1
            ],
            "min" : [
                -1,
                -1,
                -1
            ],
            "type" : "VEC3"
        },
        {
            "bufferView" : 9,
            "componentType" : 5126,
            "count" : 24,
            "type" : "VEC3"
        },
        {
            "bufferView" : 10,
            "componentType" : 5126,
            "count" : 24,
            "type" : "VEC2"
        },
        {
            "bufferView" : 11,
            "componentType" : 5123,
            "count" : 36,
            "type" : "SCALAR"
        },
        {
            "bufferView" : 12,
            "componentType" : 5126,
            "count" : 24,
            "max" : [
                1,
                1,
                1
            ],
            "min" : [
                -1,
                -1,
                -1
            ],
            "type" : "VEC3"
        },
        {
            "bufferView" : 13,
            "componentType" : 5126,
            "count" : 24,
            "type" : "VEC3"
        },
        {
            "bufferView" : 14,
            "componentType" : 5126,
            "count" : 24,
            "type" : "VEC2"
        },
        {
            "bufferView" : 15,
            "componentType" : 5126,
            "count" : 24,
            "max" : [
                1,
                1,
                1
            ],
            "min" : [
                -1,
                -1,
                -1
            ],
            "type" : "VEC3"
        },
        {
            "bufferView" : 16,
            "componentType" : 5126,
            "count" : 24,
            "type" : "VEC3"
        },
        {
            "bufferView" : 17,
            "componentType" : 5126,
            "count" : 24,
            "type" : "VEC2"
        },
        {
            "bufferView" : 18,
            "componentType" : 5126,
            "count" : 24,
            "max" : [
                1,
                1,
                1
            ],
            "min" : [
                -1,
                -1,
                -1
            ],
            "type" : "VEC3"
        },
        {
            "bufferView" : 19,
            "componentType" : 5126,
            "count" : 24,
            "type" : "VEC3"
        },
        {
            "bufferView" : 20,
            "componentType" : 5126,
            "count" : 24,
            "type" : "VEC2"
        },
        {
            "bufferView" : 21,
            "componentType" : 5126,
            "count" : 24,
            "max" : [
                1,
                1,
                1
            ],
            "min" : [
                -1,
                -1,
                -1
            ],
            "type" : "VEC3"
        },
        {
            "bufferView" : 22,
            "componentType" : 5126,
            "count" : 24,
            "type" : "VEC3"
        },
        {
            "bufferView" : 23,
            "componentType" : 5126,
            "count" : 24,
            "type" : "VEC2"
        },
        {
            "bufferView" : 24,
            "componentType" : 5126,
            "count" : 24,
            "max" : [
                1,
                1,
                1
            ],
            "min" : [
                -1,
                -1,
                -1
            ],
            "type" : "VEC3"
        },
        {
            "bufferView" : 25,
            "componentType" : 5126,
            "count" : 24,
            "type" : "VEC3"
        },
        {
            "bufferView" : 26,
            "componentType" : 5126,
            "count" : 24,
            "type" : "VEC2"
        }
    ],
    "bufferViews" : [
        {
            "buffer" : 0,
            "byteLength" : 48,
            "byteOffset" : 0
        },
        {
            "buffer" : 0,
            "byteLength" : 48,
            "byteOffset" : 48
        },
        {
            "buffer" : 0,
            "byteLength" : 32,
            "byteOffset" : 96
        },
        {
            "buffer" : 0,
            "byteLength" : 12,
            "byteOffset" : 128
        },
        {
            "buffer" : 0,
            "byteLength" : 288,
            "byteOffset" : 140
        },
        {
            "buffer" : 0,
            "byteLength" : 288,
            "byteOffset" : 428
        },
        {
            "buffer" : 0,
            "byteLength" : 192,
            "byteOffset" : 716
        },
        {
            "buffer" : 0,
            "byteLength" : 72,
            "byteOffset" : 908
        },
        {
            "buffer" : 0,
            "byteLength" : 288,
            "byteOffset" : 980
        },
        {
            "buffer" : 0,
            "byteLength" : 288,
            "byteOffset" : 1268
        },
        {
            "buffer" : 0,
            "byteLength" : 192,
            "byteOffset" : 1556
        },
        {
            "buffer" : 0,
            "byteLength" : 72,
            "byteOffset" : 1748
        },
        {
            "buffer" : 0,
            "byteLength" : 288,
            "byteOffset" : 1820
        },
        {
            "buffer" : 0,
            "byteLength" : 288,
            "byteOffset" : 2108
        },
        {
            "buffer" : 0,
            "byteLength" : 192,
            "byteOffset" : 2396
        },
        {
            "buffer" : 0,
            "byteLength" : 288,
            "byteOffset" : 2588
        },
        {
            "buffer" : 0,
            "byteLength" : 288,
            "byteOffset" : 2876
        },
        {
            "buffer" : 0,
            "byteLength" : 192,
            "byteOffset" : 3164
        },
        {
            "buffer" : 0,
            "byteLength" : 288,
            "byteOffset" : 3356
        },
        {
            "buffer" : 0,
            "byteLength" : 288,
            "byteOffset" : 3644
        },
        {
            "buffer" : 0,
            "byteLength" : 192,
            "byteOffset" : 3932
        },
        {
            "buffer" : 0,
            "byteLength" : 288,
            "byteOffset" : 4124
        },
        {
            "buffer" : 0,
            "byteLength" : 288,
            "byteOffset" : 4412
        },
        {
            "buffer" : 0,
            "byteLength" : 192,
            "byteOffset" : 4700
        },
        {
            "buffer" : 0,
            "byteLength" : 288,
            "byteOffset" : 4892
        },
        {
            "buffer" : 0,
            "byteLength" : 288,
            "byteOffset" : 5180
        },
        {
            "buffer" : 0,
            "byteLength" : 192,
            "byteOffset" : 5468
        }
    ],
    "buffers" : [
        {
            "byteLength" : 5660,
            "uri" : "SampleTerrain.bin"
        }
    ]
}
