{
	"asset":{
		"generator":"Khronos glTF Blender I/O v3.6.27",
		"version":"2.0"
	},
	"scene":0,
	"scenes":[
		{
			"name":"Scene",
			"nodes":[
				29
			]
		}
	],
	"nodes":[
		{
			"name":"Bone_L.003",
			"rotation":[
				0.010519073344767094,
				0.0016476208111271262,
				0.00017668564396444708,
				0.9999433159828186
			],
			"translation":[
				1.862645149230957e-08,
				0.2527245879173279,
				-9.313225746154785e-09
			]
		},
		{
			"children":[
				0
			],
			"name":"Bone_L.002",
			"rotation":[
				-0.14436398446559906,
				0.07563731074333191,
				0.675385594367981,
				0.7192304134368896
			],
			"scale":[
				0.9999999403953552,
				1,
				0.9999999403953552
			],
			"translation":[
				2.2351741790771484e-08,
				0.2858981788158417,
				0
			]
		},
		{
			"children":[
				1
			],
			"name":"Bone_L.001",
			"rotation":[
				-0.08891787379980087,
				0.11895661056041718,
				-0.8321547508239746,
				0.5342859625816345
			],
			"scale":[
				0.9999998211860657,
				0.9999999403953552,
				0.9999999403953552
			],
			"translation":[
				-6.984919309616089e-09,
				0.07950027287006378,
				-4.598405212163925e-09
			]
		},
		{
			"children":[
				2
			],
			"name":"Bone_L.008",
			"rotation":[
				0.11063317954540253,
				-0.11085166037082672,
				0.7053524851799011,
				0.691339373588562
			],
			"scale":[
				1,
				0.9999998807907104,
				1
			],
			"translation":[
				-1.1408701539039612e-08,
				0.1584101915359497,
				6.111804395914078e-09
			]
		},
		{
			"children":[
				3
			],
			"name":"Bone_L",
			"rotation":[
				-0.26772359013557434,
				-0.26948314905166626,
				0.6505764722824097,
				0.6576117277145386
			],
			"scale":[
				0.9999998807907104,
				0.9999999403953552,
				0.9999998807907104
			],
			"translation":[
				0,
				0.3088858127593994,
				0
			]
		},
		{
			"name":"Bone_R.003",
			"rotation":[
				0.010519073344767094,
				-0.0016476208111271262,
				-0.00017668564396444708,
				0.9999433159828186
			],
			"translation":[
				-1.862645149230957e-08,
				0.2527245879173279,
				-9.313225746154785e-09
			]
		},
		{
			"children":[
				5
			],
			"name":"Bone_R.002",
			"rotation":[
				-0.14436398446559906,
				-0.07563731074333191,
				-0.675385594367981,
				0.7192304134368896
			],
			"scale":[
				0.9999999403953552,
				1,
				0.9999999403953552
			],
			"translation":[
				-2.2351741790771484e-08,
				0.2858981788158417,
				0
			]
		},
		{
			"children":[
				6
			],
			"name":"Bone_R.001",
			"rotation":[
				-0.08891787379980087,
				-0.11895661056041718,
				0.8321547508239746,
				0.5342859625816345
			],
			"scale":[
				0.9999998211860657,
				0.9999999403953552,
				0.9999999403953552
			],
			"translation":[
				6.984919309616089e-09,
				0.07950027287006378,
				-4.598405212163925e-09
			]
		},
		{
			"children":[
				7
			],
			"name":"Bone_R.008",
			"rotation":[
				0.11063317954540253,
				0.11085166037082672,
				-0.7053524851799011,
				0.691339373588562
			],
			"scale":[
				1,
				0.9999998807907104,
				1
			],
			"translation":[
				1.1408701539039612e-08,
				0.1584101915359497,
				6.111804395914078e-09
			]
		},
		{
			"children":[
				8
			],
			"name":"Bone_R",
			"rotation":[
				-0.26772359013557434,
				0.26948314905166626,
				-0.6505764722824097,
				0.6576117277145386
			],
			"scale":[
				0.9999998807907104,
				0.9999999403953552,
				0.9999998807907104
			],
			"translation":[
				0,
				0.3088858127593994,
				0
			]
		},
		{
			"name":"Bone_L.007",
			"rotation":[
				0.0025839293375611305,
				-0.00028813659446313977,
				0.016667701303958893,
				0.9998577237129211
			],
			"scale":[
				0.9999998807907104,
				0.9999998807907104,
				0.9999999403953552
			],
			"translation":[
				-4.0978193283081055e-08,
				0.24895401298999786,
				-1.6298145055770874e-08
			]
		},
		{
			"children":[
				10
			],
			"name":"Bone_L.006",
			"rotation":[
				0.008466878905892372,
				-0.022455131635069847,
				0.6897716522216797,
				0.7236291766166687
			],
			"scale":[
				0.9999999403953552,
				0.9999999403953552,
				0.9999999403953552
			],
			"translation":[
				1.4901161193847656e-08,
				0.2874554693698883,
				-8.556526154279709e-09
			]
		},
		{
			"children":[
				11
			],
			"name":"Bone_L.005",
			"rotation":[
				-0.01595921441912651,
				0.01592528633773327,
				-0.8335694074630737,
				0.5519545674324036
			],
			"scale":[
				0.9999998211860657,
				0.9999999403953552,
				0.9999999403953552
			],
			"translation":[
				-1.5686964616179466e-08,
				0.08027856051921844,
				1.076841726899147e-08
			]
		},
		{
			"children":[
				12
			],
			"name":"Bone_L.009",
			"rotation":[
				0.016563478857278824,
				-0.01837581768631935,
				0.7097048163414001,
				0.704064667224884
			],
			"scale":[
				1,
				1,
				0.9999998807907104
			],
			"translation":[
				1.9033905118703842e-08,
				0.15917176008224487,
				-5.675246939063072e-10
			]
		},
		{
			"children":[
				13
			],
			"name":"Bone_L.004",
			"rotation":[
				0.27132245898246765,
				0.27293896675109863,
				0.650412380695343,
				0.6548680067062378
			],
			"scale":[
				0.9999999403953552,
				0.9999998807907104,
				0.9999998807907104
			],
			"translation":[
				0,
				0.3088858127593994,
				0
			]
		},
		{
			"name":"Bone_R.007",
			"rotation":[
				0.0025839293375611305,
				0.00028813659446313977,
				-0.016667701303958893,
				0.9998577237129211
			],
			"scale":[
				0.9999998807907104,
				0.9999998807907104,
				0.9999999403953552
			],
			"translation":[
				4.0978193283081055e-08,
				0.24895401298999786,
				-1.6298145055770874e-08
			]
		},
		{
			"children":[
				15
			],
			"name":"Bone_R.006",
			"rotation":[
				0.008466878905892372,
				0.022455131635069847,
				-0.6897716522216797,
				0.7236291766166687
			],
			"scale":[
				0.9999999403953552,
				0.9999999403953552,
				0.9999999403953552
			],
			"translation":[
				-1.4901161193847656e-08,
				0.2874554693698883,
				-8.556526154279709e-09
			]
		},
		{
			"children":[
				16
			],
			"name":"Bone_R.005",
			"rotation":[
				-0.01595921441912651,
				-0.01592528633773327,
				0.8335694074630737,
				0.5519545674324036
			],
			"scale":[
				0.9999998211860657,
				0.9999999403953552,
				0.9999999403953552
			],
			"translation":[
				1.5686964616179466e-08,
				0.08027856051921844,
				1.076841726899147e-08
			]
		},
		{
			"children":[
				17
			],
			"name":"Bone_R.009",
			"rotation":[
				0.016563478857278824,
				0.01837581768631935,
				-0.7097048163414001,
				0.704064667224884
			],
			"scale":[
				1,
				1,
				0.9999998807907104
			],
			"translation":[
				-1.9033905118703842e-08,
				0.15917176008224487,
				-5.675246939063072e-10
			]
		},
		{
			"children":[
				18
			],
			"name":"Bone_R.004",
			"rotation":[
				0.27132245898246765,
				-0.27293896675109863,
				-0.650412380695343,
				0.6548680067062378
			],
			"scale":[
				0.9999999403953552,
				0.9999998807907104,
				0.9999998807907104
			],
			"translation":[
				0,
				0.3088858127593994,
				0
			]
		},
		{
			"name":"Bone.002_L.001",
			"rotation":[
				-0.7071067690849304,
				0,
				-1.3767878215276141e-07,
				0.7071067690849304
			],
			"translation":[
				0,
				0.2510763108730316,
				0
			]
		},
		{
			"children":[
				20
			],
			"name":"Bone.002_L",
			"rotation":[
				-1.531330866555436e-07,
				-1.545430627913902e-08,
				0.7071067690849304,
				0.7071067690849304
			],
			"translation":[
				0,
				0.21287524700164795,
				0
			]
		},
		{
			"name":"Bone.002_R.001",
			"rotation":[
				-0.7071067690849304,
				0,
				1.3767878215276141e-07,
				0.7071067690849304
			],
			"translation":[
				0,
				0.2510763108730316,
				0
			]
		},
		{
			"children":[
				22
			],
			"name":"Bone.002_R",
			"rotation":[
				1.545430627913902e-08,
				-1.5313307244468888e-07,
				-0.7071067690849304,
				0.7071067690849304
			],
			"translation":[
				0,
				0.21287524700164795,
				0
			]
		},
		{
			"children":[
				21,
				23
			],
			"name":"Bone.002",
			"rotation":[
				0,
				-7.105427357601002e-15,
				0,
				1
			],
			"scale":[
				1,
				0.9999999403953552,
				1
			],
			"translation":[
				0,
				0.06422492861747742,
				0
			]
		},
		{
			"children":[
				24
			],
			"name":"Bone.001",
			"rotation":[
				0,
				1.1920928955078125e-07,
				0,
				1
			],
			"translation":[
				0,
				0.3088858127593994,
				0
			]
		},
		{
			"children":[
				4,
				9,
				14,
				19,
				25
			],
			"name":"Bone"
		},
		{
			"name":"neutral_bone",
			"rotation":[
				-0.7071067690849304,
				0,
				0,
				0.7071067690849304
			]
		},
		{
			"mesh":0,
			"name":"Object_11",
			"skin":0
		},
		{
			"children":[
				28,
				26,
				27
			],
			"name":"\u30a2\u30fc\u30de\u30c1\u30e5\u30a2"
		}
	],
	"materials":[
		{
			"doubleSided":true,
			"name":"Base",
			"pbrMetallicRoughness":{
				"baseColorFactor":[
					0.05000000074505806,
					0.05000000074505806,
					0.05000000074505806,
					1
				],
				"metallicFactor":0,
				"roughnessFactor":0.4000000059604645
			}
		},
		{
			"doubleSided":true,
			"emissiveFactor":[
				0.7991030216217041,
				0.201555997133255,
				0
			],
			"name":"Accent",
			"pbrMetallicRoughness":{
				"baseColorFactor":[
					0.800000011920929,
					0.20311899483203888,
					0,
					1
				],
				"metallicFactor":0,
				"roughnessFactor":0.5
			}
		},
		{
			"doubleSided":true,
			"name":"Base_2",
			"pbrMetallicRoughness":{
				"baseColorFactor":[
					0.20000000298023224,
					0.20000000298023224,
					0.20000000298023224,
					1
				],
				"metallicFactor":0,
				"roughnessFactor":0.5
			}
		},
		{
			"doubleSided":true,
			"name":"Black",
			"pbrMetallicRoughness":{
				"baseColorFactor":[
					0,
					0,
					0,
					1
				],
				"metallicFactor":0,
				"roughnessFactor":0.4000000059604645
			}
		}
	],
	"meshes":[
		{
			"name":"Object_0.001",
			"primitives":[
				{
					"attributes":{
						"POSITION":0,
						"NORMAL":1,
						"TEXCOORD_0":2,
						"TANGENT":3,
						"JOINTS_0":4,
						"WEIGHTS_0":5
					},
					"indices":6,
					"material":0
				},
				{
					"attributes":{
						"POSITION":7,
						"NORMAL":8,
						"TEXCOORD_0":9,
						"TANGENT":10,
						"JOINTS_0":11,
						"WEIGHTS_0":12
					},
					"indices":13,
					"material":1
				},
				{
					"attributes":{
						"POSITION":14,
						"NORMAL":15,
						"TEXCOORD_0":16,
						"TANGENT":17,
						"JOINTS_0":18,
						"WEIGHTS_0":19
					},
					"indices":20,
					"material":2
				},
				{
					"attributes":{
						"POSITION":21,
						"NORMAL":22,
						"TEXCOORD_0":23,
						"TANGENT":24,
						"JOINTS_0":25,
						"WEIGHTS_0":26
					},
					"indices":27,
					"material":3
				}
			]
		}
	],
	"skins":[
		{
			"inverseBindMatrices":28,
			"joints":[
				26,
				4,
				3,
				2,
				1,
				0,
				9,
				8,
				7,
				6,
				5,
				14,
				13,
				12,
				11,
				10,
				19,
				18,
				17,
				16,
				15,
				25,
				24,
				21,
				20,
				23,
				22,
				27
			],
			"name":"\u30a2\u30fc\u30de\u30c1\u30e5\u30a2"
		}
	],
	"accessors":[
		{
			"bufferView":0,
			"componentType":5126,
			"count":10295,
			"max":[
				0.5010237097740173,
				0.7549999356269836,
				0.5010236501693726
			],
			"min":[
				-0.5010236501693726,
				-0.009053826332092285,
				-0.5010235905647278
			],
			"type":"VEC3"
		},
		{
			"bufferView":1,
			"componentType":5126,
			"count":10295,
			"type":"VEC3"
		},
		{
			"bufferView":2,
			"componentType":5126,
			"count":10295,
			"type":"VEC2"
		},
		{
			"bufferView":3,
			"componentType":5126,
			"count":10295,
			"type":"VEC4"
		},
		{
			"bufferView":4,
			"componentType":5121,
			"count":10295,
			"type":"VEC4"
		},
		{
			"bufferView":5,
			"componentType":5126,
			"count":10295,
			"type":"VEC4"
		},
		{
			"bufferView":6,
			"componentType":5123,
			"count":20052,
			"type":"SCALAR"
		},
		{
			"bufferView":7,
			"componentType":5126,
			"count":1778,
			"max":[
				0.4203261137008667,
				0.7449999451637268,
				0.4203260540962219
			],
			"min":[
				-0.4203261435031891,
				0.09825210273265839,
				-0.4203260540962219
			],
			"type":"VEC3"
		},
		{
			"bufferView":8,
			"componentType":5126,
			"count":1778,
			"type":"VEC3"
		},
		{
			"bufferView":9,
			"componentType":5126,
			"count":1778,
			"type":"VEC2"
		},
		{
			"bufferView":10,
			"componentType":5126,
			"count":1778,
			"type":"VEC4"
		},
		{
			"bufferView":11,
			"componentType":5121,
			"count":1778,
			"type":"VEC4"
		},
		{
			"bufferView":12,
			"componentType":5126,
			"count":1778,
			"type":"VEC4"
		},
		{
			"bufferView":13,
			"componentType":5123,
			"count":3624,
			"type":"SCALAR"
		},
		{
			"bufferView":14,
			"componentType":5126,
			"count":5831,
			"max":[
				0.48720043897628784,
				0.7549999356269836,
				0.48720040917396545
			],
			"min":[
				-0.48720037937164307,
				0.07715070247650146,
				-0.4872003197669983
			],
			"type":"VEC3"
		},
		{
			"bufferView":15,
			"componentType":5126,
			"count":5831,
			"type":"VEC3"
		},
		{
			"bufferView":16,
			"componentType":5126,
			"count":5831,
			"type":"VEC2"
		},
		{
			"bufferView":17,
			"componentType":5126,
			"count":5831,
			"type":"VEC4"
		},
		{
			"bufferView":18,
			"componentType":5121,
			"count":5831,
			"type":"VEC4"
		},
		{
			"bufferView":19,
			"componentType":5126,
			"count":5831,
			"type":"VEC4"
		},
		{
			"bufferView":20,
			"componentType":5123,
			"count":10548,
			"type":"SCALAR"
		},
		{
			"bufferView":21,
			"componentType":5126,
			"count":147,
			"max":[
				0.29958829283714294,
				0.5945879817008972,
				-0.15000000596046448
			],
			"min":[
				-0.29958823323249817,
				0.14041167497634888,
				-0.1625000685453415
			],
			"type":"VEC3"
		},
		{
			"bufferView":22,
			"componentType":5126,
			"count":147,
			"type":"VEC3"
		},
		{
			"bufferView":23,
			"componentType":5126,
			"count":147,
			"type":"VEC2"
		},
		{
			"bufferView":24,
			"componentType":5126,
			"count":147,
			"type":"VEC4"
		},
		{
			"bufferView":25,
			"componentType":5121,
			"count":147,
			"type":"VEC4"
		},
		{
			"bufferView":26,
			"componentType":5126,
			"count":147,
			"type":"VEC4"
		},
		{
			"bufferView":27,
			"componentType":5123,
			"count":216,
			"type":"SCALAR"
		},
		{
			"bufferView":28,
			"componentType":5126,
			"count":28,
			"type":"MAT4"
		}
	],
	"bufferViews":[
		{
			"buffer":0,
			"byteLength":123540,
			"byteOffset":0,
			"target":34962
		},
		{
			"buffer":0,
			"byteLength":123540,
			"byteOffset":123540,
			"target":34962
		},
		{
			"buffer":0,
			"byteLength":82360,
			"byteOffset":247080,
			"target":34962
		},
		{
			"buffer":0,
			"byteLength":164720,
			"byteOffset":329440,
			"target":34962
		},
		{
			"buffer":0,
			"byteLength":41180,
			"byteOffset":494160,
			"target":34962
		},
		{
			"buffer":0,
			"byteLength":164720,
			"byteOffset":535340,
			"target":34962
		},
		{
			"buffer":0,
			"byteLength":40104,
			"byteOffset":700060,
			"target":34963
		},
		{
			"buffer":0,
			"byteLength":21336,
			"byteOffset":740164,
			"target":34962
		},
		{
			"buffer":0,
			"byteLength":21336,
			"byteOffset":761500,
			"target":34962
		},
		{
			"buffer":0,
			"byteLength":14224,
			"byteOffset":782836,
			"target":34962
		},
		{
			"buffer":0,
			"byteLength":28448,
			"byteOffset":797060,
			"target":34962
		},
		{
			"buffer":0,
			"byteLength":7112,
			"byteOffset":825508,
			"target":34962
		},
		{
			"buffer":0,
			"byteLength":28448,
			"byteOffset":832620,
			"target":34962
		},
		{
			"buffer":0,
			"byteLength":7248,
			"byteOffset":861068,
			"target":34963
		},
		{
			"buffer":0,
			"byteLength":69972,
			"byteOffset":868316,
			"target":34962
		},
		{
			"buffer":0,
			"byteLength":69972,
			"byteOffset":938288,
			"target":34962
		},
		{
			"buffer":0,
			"byteLength":46648,
			"byteOffset":1008260,
			"target":34962
		},
		{
			"buffer":0,
			"byteLength":93296,
			"byteOffset":1054908,
			"target":34962
		},
		{
			"buffer":0,
			"byteLength":23324,
			"byteOffset":1148204,
			"target":34962
		},
		{
			"buffer":0,
			"byteLength":93296,
			"byteOffset":1171528,
			"target":34962
		},
		{
			"buffer":0,
			"byteLength":21096,
			"byteOffset":1264824,
			"target":34963
		},
		{
			"buffer":0,
			"byteLength":1764,
			"byteOffset":1285920,
			"target":34962
		},
		{
			"buffer":0,
			"byteLength":1764,
			"byteOffset":1287684,
			"target":34962
		},
		{
			"buffer":0,
			"byteLength":1176,
			"byteOffset":1289448,
			"target":34962
		},
		{
			"buffer":0,
			"byteLength":2352,
			"byteOffset":1290624,
			"target":34962
		},
		{
			"buffer":0,
			"byteLength":588,
			"byteOffset":1292976,
			"target":34962
		},
		{
			"buffer":0,
			"byteLength":2352,
			"byteOffset":1293564,
			"target":34962
		},
		{
			"buffer":0,
			"byteLength":432,
			"byteOffset":1295916,
			"target":34963
		},
		{
			"buffer":0,
			"byteLength":1792,
			"byteOffset":1296348
		}
	],
	"buffers":[
		{
			"byteLength":1298140,
			"uri":"enemyRobot.bin"
		}
	]
}
