{
	"asset":{
		"generator":"Khronos glTF Blender I/O v3.6.27",
		"version":"2.0"
	},
	"scene":0,
	"scenes":[
		{
			"name":"Scene",
			"nodes":[
				0,
				1,
				2,
				3,
				4,
				5,
				6,
				7
			]
		}
	],
	"nodes":[
		{
			"mesh":0,
			"name":"LP_wall_map1_0.001",
			"rotation":[
				0.70710688829422,
				0,
				0,
				0.7071066498756409
			],
			"scale":[
				0.00596755463629961,
				0.005967555567622185,
				0.005967555567622185
			],
			"translation":[
				0,
				0.034151554107666016,
				0.001561194658279419
			]
		},
		{
			"mesh":1,
			"name":"LP_wall_map1_0.002",
			"rotation":[
				0.70710688829422,
				0,
				0,
				0.7071066498756409
			],
			"scale":[
				0.00596755463629961,
				0.005967555567622185,
				0.005967555567622185
			],
			"translation":[
				-6.280813694000244,
				2.9932971000671387,
				-15.255593299865723
			]
		},
		{
			"mesh":2,
			"name":"LP_wall_map1_0.003",
			"rotation":[
				0.70710688829422,
				0,
				0,
				0.7071066498756409
			],
			"scale":[
				0.00596755463629961,
				0.005967555567622185,
				0.005967555567622185
			],
			"translation":[
				-6.831542015075684,
				0.0020072460174560547,
				-20.109642028808594
			]
		},
		{
			"mesh":3,
			"name":"LP_wall_map1_0.005",
			"rotation":[
				0.70710688829422,
				0,
				0,
				0.7071066498756409
			],
			"scale":[
				0.00596755463629961,
				0.005967555567622185,
				0.005967555567622185
			],
			"translation":[
				1.4965033531188965,
				21.603412628173828,
				1.9095182418823242
			]
		},
		{
			"mesh":4,
			"name":"LP_wall_map1_0.006",
			"rotation":[
				0.70710688829422,
				0,
				0,
				0.7071066498756409
			],
			"scale":[
				0.00596755463629961,
				0.005967555567622185,
				0.005967555567622185
			],
			"translation":[
				9.508321762084961,
				2.9932971000671387,
				-15.255593299865723
			]
		},
		{
			"mesh":5,
			"name":"LP_wall_map1_0.009",
			"rotation":[
				0.70710688829422,
				0,
				0,
				0.7071066498756409
			],
			"scale":[
				0.00596755463629961,
				0.005967555567622185,
				0.005967555567622185
			],
			"translation":[
				18.417308807373047,
				2.9932971000671387,
				-15.255593299865723
			]
		},
		{
			"mesh":6,
			"name":"LP_wall_map1_0.010",
			"rotation":[
				0.70710688829422,
				0,
				0,
				0.7071066498756409
			],
			"scale":[
				0.00596755463629961,
				0.005967555567622185,
				0.005967555567622185
			],
			"translation":[
				9.508321762084961,
				2.9932971000671387,
				-19.018827438354492
			]
		},
		{
			"mesh":7,
			"name":"LP_wall_map1_0.007",
			"rotation":[
				0.70710688829422,
				0,
				0,
				0.7071066498756409
			],
			"scale":[
				0.00596755463629961,
				0.005967555567622185,
				0.005967555567622185
			],
			"translation":[
				-6.089860916137695,
				0.0016559958457946777,
				0.0003881677985191345
			]
		}
	],
	"materials":[
		{
			"doubleSided":true,
			"emissiveFactor":[
				1,
				1,
				1
			],
			"emissiveTexture":{
				"index":0
			},
			"name":"map1",
			"normalTexture":{
				"index":1
			},
			"occlusionTexture":{
				"index":2
			},
			"pbrMetallicRoughness":{
				"baseColorTexture":{
					"index":3
				},
				"metallicRoughnessTexture":{
					"index":2
				}
			}
		},
		{
			"doubleSided":true,
			"name":"Material.001",
			"normalTexture":{
				"index":4
			},
			"occlusionTexture":{
				"index":5
			},
			"pbrMetallicRoughness":{
				"baseColorTexture":{
					"index":6
				},
				"metallicRoughnessTexture":{
					"index":5
				}
			}
		}
	],
	"meshes":[
		{
			"name":"LP_wall_map1_0.001",
			"primitives":[
				{
					"attributes":{
						"POSITION":0,
						"NORMAL":1,
						"TEXCOORD_0":2,
						"TEXCOORD_1":3,
						"TEXCOORD_2":4,
						"TANGENT":5
					},
					"indices":6,
					"material":0
				},
				{
					"attributes":{
						"POSITION":7,
						"NORMAL":8,
						"TEXCOORD_0":9,
						"TEXCOORD_1":10,
						"TEXCOORD_2":11,
						"TANGENT":12
					},
					"indices":13,
					"material":1
				}
			]
		},
		{
			"name":"LP_wall_map1_0.002",
			"primitives":[
				{
					"attributes":{
						"POSITION":14,
						"NORMAL":15,
						"TEXCOORD_0":16,
						"TEXCOORD_1":17,
						"TEXCOORD_2":18,
						"TANGENT":19
					},
					"indices":20,
					"material":0
				},
				{
					"attributes":{
						"POSITION":21,
						"NORMAL":22,
						"TEXCOORD_0":23,
						"TEXCOORD_1":24,
						"TEXCOORD_2":25,
						"TANGENT":26
					},
					"indices":27,
					"material":1
				}
			]
		},
		{
			"name":"LP_wall_map1_0.009",
			"primitives":[
				{
					"attributes":{
						"POSITION":28,
						"NORMAL":29,
						"TEXCOORD_0":30,
						"TEXCOORD_1":31,
						"TEXCOORD_2":32,
						"TANGENT":33
					},
					"indices":34,
					"material":0
				},
				{
					"attributes":{
						"POSITION":35,
						"NORMAL":36,
						"TEXCOORD_0":37,
						"TEXCOORD_1":38,
						"TEXCOORD_2":39,
						"TANGENT":40
					},
					"indices":41,
					"material":1
				}
			]
		},
		{
			"name":"LP_wall_map1_0.010",
			"primitives":[
				{
					"attributes":{
						"POSITION":42,
						"NORMAL":43,
						"TEXCOORD_0":44,
						"TEXCOORD_1":45,
						"TEXCOORD_2":46,
						"TANGENT":47
					},
					"indices":27,
					"material":1
				}
			]
		},
		{
			"name":"LP_wall_map1_0.012",
			"primitives":[
				{
					"attributes":{
						"POSITION":48,
						"NORMAL":49,
						"TEXCOORD_0":50,
						"TEXCOORD_1":51,
						"TEXCOORD_2":52,
						"TANGENT":53
					},
					"indices":27,
					"material":1
				}
			]
		},
		{
			"name":"LP_wall_map1_0.015",
			"primitives":[
				{
					"attributes":{
						"POSITION":54,
						"NORMAL":55,
						"TEXCOORD_0":56,
						"TEXCOORD_1":57,
						"TEXCOORD_2":58,
						"TANGENT":59
					},
					"indices":27,
					"material":1
				}
			]
		},
		{
			"name":"LP_wall_map1_0.016",
			"primitives":[
				{
					"attributes":{
						"POSITION":60,
						"NORMAL":61,
						"TEXCOORD_0":62,
						"TEXCOORD_1":63,
						"TEXCOORD_2":64,
						"TANGENT":65
					},
					"indices":66,
					"material":0
				}
			]
		},
		{
			"name":"LP_wall_map1_0.020",
			"primitives":[
				{
					"attributes":{
						"POSITION":67,
						"NORMAL":68,
						"TEXCOORD_0":69,
						"TEXCOORD_1":70,
						"TEXCOORD_2":71,
						"TANGENT":72
					},
					"indices":73,
					"material":1
				},
				{
					"attributes":{
						"POSITION":74,
						"NORMAL":75,
						"TEXCOORD_0":76,
						"TEXCOORD_1":77,
						"TEXCOORD_2":78,
						"TANGENT":79
					},
					"indices":80,
					"material":0
				}
			]
		}
	],
	"textures":[
		{
			"sampler":0,
			"source":0
		},
		{
			"sampler":0,
			"source":1
		},
		{
			"sampler":0,
			"source":2
		},
		{
			"sampler":0,
			"source":3
		},
		{
			"sampler":0,
			"source":4
		},
		{
			"sampler":0,
			"source":5
		},
		{
			"sampler":0,
			"source":6
		}
	],
	"images":[
		{
			"mimeType":"image/png",
			"name":"map1_emissive",
			"uri":"map1_emissive.png"
		},
		{
			"mimeType":"image/png",
			"name":"map1_normal",
			"uri":"map1_normal.png"
		},
		{
			"mimeType":"image/png",
			"name":"map1_metallicRoughness",
			"uri":"map1_metallicRoughness.png"
		},
		{
			"mimeType":"image/png",
			"name":"map1_baseColor",
			"uri":"map1_baseColor.png"
		},
		{
			"mimeType":"image/png",
			"name":"Material_normal",
			"uri":"Material_normal.png"
		},
		{
			"mimeType":"image/png",
			"name":"Material_metallicRoughness",
			"uri":"Material_metallicRoughness.png"
		},
		{
			"mimeType":"image/png",
			"name":"Material_baseColor",
			"uri":"Material_baseColor.png"
		}
	],
	"accessors":[
		{
			"bufferView":0,
			"componentType":5126,
			"count":24,
			"max":[
				502.718505859375,
				502.4568176269531,
				9.006900787353516
			],
			"min":[
				-1528.1524658203125,
				-502.98004150390625,
				-992.5884399414062
			],
			"type":"VEC3"
		},
		{
			"bufferView":1,
			"componentType":5126,
			"count":24,
			"type":"VEC3"
		},
		{
			"bufferView":2,
			"componentType":5126,
			"count":24,
			"type":"VEC2"
		},
		{
			"bufferView":3,
			"componentType":5126,
			"count":24,
			"type":"VEC2"
		},
		{
			"bufferView":4,
			"componentType":5126,
			"count":24,
			"type":"VEC2"
		},
		{
			"bufferView":5,
			"componentType":5126,
			"count":24,
			"type":"VEC4"
		},
		{
			"bufferView":6,
			"componentType":5123,
			"count":24,
			"type":"SCALAR"
		},
		{
			"bufferView":7,
			"componentType":5126,
			"count":10,
			"max":[
				502.718505859375,
				502.4568176269531,
				9.006900787353516
			],
			"min":[
				-1528.1524658203125,
				-502.98004150390625,
				9.00662612915039
			],
			"type":"VEC3"
		},
		{
			"bufferView":8,
			"componentType":5126,
			"count":10,
			"type":"VEC3"
		},
		{
			"bufferView":9,
			"componentType":5126,
			"count":10,
			"type":"VEC2"
		},
		{
			"bufferView":10,
			"componentType":5126,
			"count":10,
			"type":"VEC2"
		},
		{
			"bufferView":11,
			"componentType":5126,
			"count":10,
			"type":"VEC2"
		},
		{
			"bufferView":12,
			"componentType":5126,
			"count":10,
			"type":"VEC4"
		},
		{
			"bufferView":13,
			"componentType":5123,
			"count":12,
			"type":"SCALAR"
		},
		{
			"bufferView":14,
			"componentType":5126,
			"count":12,
			"max":[
				502.718505859375,
				75.54696655273438,
				501.5953369140625
			],
			"min":[
				-502.718505859375,
				-929.889892578125,
				-500
			],
			"type":"VEC3"
		},
		{
			"bufferView":15,
			"componentType":5126,
			"count":12,
			"type":"VEC3"
		},
		{
			"bufferView":16,
			"componentType":5126,
			"count":12,
			"type":"VEC2"
		},
		{
			"bufferView":17,
			"componentType":5126,
			"count":12,
			"type":"VEC2"
		},
		{
			"bufferView":18,
			"componentType":5126,
			"count":12,
			"type":"VEC2"
		},
		{
			"bufferView":19,
			"componentType":5126,
			"count":12,
			"type":"VEC4"
		},
		{
			"bufferView":20,
			"componentType":5123,
			"count":12,
			"type":"SCALAR"
		},
		{
			"bufferView":21,
			"componentType":5126,
			"count":4,
			"max":[
				502.718505859375,
				75.54696655273438,
				501.5953369140625
			],
			"min":[
				-502.718505859375,
				-929.889892578125,
				501.5950927734375
			],
			"type":"VEC3"
		},
		{
			"bufferView":22,
			"componentType":5126,
			"count":4,
			"type":"VEC3"
		},
		{
			"bufferView":23,
			"componentType":5126,
			"count":4,
			"type":"VEC2"
		},
		{
			"bufferView":24,
			"componentType":5126,
			"count":4,
			"type":"VEC2"
		},
		{
			"bufferView":25,
			"componentType":5126,
			"count":4,
			"type":"VEC2"
		},
		{
			"bufferView":26,
			"componentType":5126,
			"count":4,
			"type":"VEC4"
		},
		{
			"bufferView":27,
			"componentType":5123,
			"count":6,
			"type":"SCALAR"
		},
		{
			"bufferView":28,
			"componentType":5126,
			"count":12,
			"max":[
				502.718505859375,
				1522.576904296875,
				9.794300079345703
			],
			"min":[
				-502.718505859375,
				-1539.767578125,
				-991.8013305664062
			],
			"type":"VEC3"
		},
		{
			"bufferView":29,
			"componentType":5126,
			"count":12,
			"type":"VEC3"
		},
		{
			"bufferView":30,
			"componentType":5126,
			"count":12,
			"type":"VEC2"
		},
		{
			"bufferView":31,
			"componentType":5126,
			"count":12,
			"type":"VEC2"
		},
		{
			"bufferView":32,
			"componentType":5126,
			"count":12,
			"type":"VEC2"
		},
		{
			"bufferView":33,
			"componentType":5126,
			"count":12,
			"type":"VEC4"
		},
		{
			"bufferView":34,
			"componentType":5123,
			"count":12,
			"type":"SCALAR"
		},
		{
			"bufferView":35,
			"componentType":5126,
			"count":14,
			"max":[
				502.718505859375,
				1522.576904296875,
				9.794300079345703
			],
			"min":[
				-502.718505859375,
				-1529.304443359375,
				9.793781280517578
			],
			"type":"VEC3"
		},
		{
			"bufferView":36,
			"componentType":5126,
			"count":14,
			"type":"VEC3"
		},
		{
			"bufferView":37,
			"componentType":5126,
			"count":14,
			"type":"VEC2"
		},
		{
			"bufferView":38,
			"componentType":5126,
			"count":14,
			"type":"VEC2"
		},
		{
			"bufferView":39,
			"componentType":5126,
			"count":14,
			"type":"VEC2"
		},
		{
			"bufferView":40,
			"componentType":5126,
			"count":14,
			"type":"VEC4"
		},
		{
			"bufferView":41,
			"componentType":5123,
			"count":18,
			"type":"SCALAR"
		},
		{
			"bufferView":42,
			"componentType":5126,
			"count":4,
			"max":[
				502.718505859375,
				75.54696655273438,
				501.5953369140625
			],
			"min":[
				-502.718505859375,
				-929.889892578125,
				501.5950927734375
			],
			"type":"VEC3"
		},
		{
			"bufferView":43,
			"componentType":5126,
			"count":4,
			"type":"VEC3"
		},
		{
			"bufferView":44,
			"componentType":5126,
			"count":4,
			"type":"VEC2"
		},
		{
			"bufferView":45,
			"componentType":5126,
			"count":4,
			"type":"VEC2"
		},
		{
			"bufferView":46,
			"componentType":5126,
			"count":4,
			"type":"VEC2"
		},
		{
			"bufferView":47,
			"componentType":5126,
			"count":4,
			"type":"VEC4"
		},
		{
			"bufferView":48,
			"componentType":5126,
			"count":4,
			"max":[
				502.718505859375,
				75.54696655273438,
				501.5953369140625
			],
			"min":[
				-502.718505859375,
				-929.889892578125,
				501.5950927734375
			],
			"type":"VEC3"
		},
		{
			"bufferView":49,
			"componentType":5126,
			"count":4,
			"type":"VEC3"
		},
		{
			"bufferView":50,
			"componentType":5126,
			"count":4,
			"type":"VEC2"
		},
		{
			"bufferView":51,
			"componentType":5126,
			"count":4,
			"type":"VEC2"
		},
		{
			"bufferView":52,
			"componentType":5126,
			"count":4,
			"type":"VEC2"
		},
		{
			"bufferView":53,
			"componentType":5126,
			"count":4,
			"type":"VEC4"
		},
		{
			"bufferView":54,
			"componentType":5126,
			"count":4,
			"max":[
				502.718505859375,
				75.54696655273438,
				501.5953369140625
			],
			"min":[
				-502.718505859375,
				-929.889892578125,
				501.5950927734375
			],
			"type":"VEC3"
		},
		{
			"bufferView":55,
			"componentType":5126,
			"count":4,
			"type":"VEC3"
		},
		{
			"bufferView":56,
			"componentType":5126,
			"count":4,
			"type":"VEC2"
		},
		{
			"bufferView":57,
			"componentType":5126,
			"count":4,
			"type":"VEC2"
		},
		{
			"bufferView":58,
			"componentType":5126,
			"count":4,
			"type":"VEC2"
		},
		{
			"bufferView":59,
			"componentType":5126,
			"count":4,
			"type":"VEC4"
		},
		{
			"bufferView":60,
			"componentType":5126,
			"count":6,
			"max":[
				502.718505859375,
				-919.383544921875,
				501.5953369140625
			],
			"min":[
				-502.718505859375,
				-929.889892578125,
				-499.9999084472656
			],
			"type":"VEC3"
		},
		{
			"bufferView":61,
			"componentType":5126,
			"count":6,
			"type":"VEC3"
		},
		{
			"bufferView":62,
			"componentType":5126,
			"count":6,
			"type":"VEC2"
		},
		{
			"bufferView":63,
			"componentType":5126,
			"count":6,
			"type":"VEC2"
		},
		{
			"bufferView":64,
			"componentType":5126,
			"count":6,
			"type":"VEC2"
		},
		{
			"bufferView":65,
			"componentType":5126,
			"count":6,
			"type":"VEC4"
		},
		{
			"bufferView":66,
			"componentType":5123,
			"count":6,
			"type":"SCALAR"
		},
		{
			"bufferView":67,
			"componentType":5126,
			"count":515,
			"max":[
				1500.740966796875,
				1578.147705078125,
				0.15096865594387054
			],
			"min":[
				-9832.083984375,
				-6689.86962890625,
				-3002.689697265625
			],
			"type":"VEC3"
		},
		{
			"bufferView":68,
			"componentType":5126,
			"count":515,
			"type":"VEC3"
		},
		{
			"bufferView":69,
			"componentType":5126,
			"count":515,
			"type":"VEC2"
		},
		{
			"bufferView":70,
			"componentType":5126,
			"count":515,
			"type":"VEC2"
		},
		{
			"bufferView":71,
			"componentType":5126,
			"count":515,
			"type":"VEC2"
		},
		{
			"bufferView":72,
			"componentType":5126,
			"count":515,
			"type":"VEC4"
		},
		{
			"bufferView":73,
			"componentType":5123,
			"count":576,
			"type":"SCALAR"
		},
		{
			"bufferView":74,
			"componentType":5126,
			"count":530,
			"max":[
				1500.740966796875,
				1578.147705078125,
				0.15096865594387054
			],
			"min":[
				-9832.083984375,
				-6689.86962890625,
				-3002.689697265625
			],
			"type":"VEC3"
		},
		{
			"bufferView":75,
			"componentType":5126,
			"count":530,
			"type":"VEC3"
		},
		{
			"bufferView":76,
			"componentType":5126,
			"count":530,
			"type":"VEC2"
		},
		{
			"bufferView":77,
			"componentType":5126,
			"count":530,
			"type":"VEC2"
		},
		{
			"bufferView":78,
			"componentType":5126,
			"count":530,
			"type":"VEC2"
		},
		{
			"bufferView":79,
			"componentType":5126,
			"count":530,
			"type":"VEC4"
		},
		{
			"bufferView":80,
			"componentType":5123,
			"count":576,
			"type":"SCALAR"
		}
	],
	"bufferViews":[
		{
			"buffer":0,
			"byteLength":288,
			"byteOffset":0,
			"target":34962
		},
		{
			"buffer":0,
			"byteLength":288,
			"byteOffset":288,
			"target":34962
		},
		{
			"buffer":0,
			"byteLength":192,
			"byteOffset":576,
			"target":34962
		},
		{
			"buffer":0,
			"byteLength":192,
			"byteOffset":768,
			"target":34962
		},
		{
			"buffer":0,
			"byteLength":192,
			"byteOffset":960,
			"target":34962
		},
		{
			"buffer":0,
			"byteLength":384,
			"byteOffset":1152,
			"target":34962
		},
		{
			"buffer":0,
			"byteLength":48,
			"byteOffset":1536,
			"target":34963
		},
		{
			"buffer":0,
			"byteLength":120,
			"byteOffset":1584,
			"target":34962
		},
		{
			"buffer":0,
			"byteLength":120,
			"byteOffset":1704,
			"target":34962
		},
		{
			"buffer":0,
			"byteLength":80,
			"byteOffset":1824,
			"target":34962
		},
		{
			"buffer":0,
			"byteLength":80,
			"byteOffset":1904,
			"target":34962
		},
		{
			"buffer":0,
			"byteLength":80,
			"byteOffset":1984,
			"target":34962
		},
		{
			"buffer":0,
			"byteLength":160,
			"byteOffset":2064,
			"target":34962
		},
		{
			"buffer":0,
			"byteLength":24,
			"byteOffset":2224,
			"target":34963
		},
		{
			"buffer":0,
			"byteLength":144,
			"byteOffset":2248,
			"target":34962
		},
		{
			"buffer":0,
			"byteLength":144,
			"byteOffset":2392,
			"target":34962
		},
		{
			"buffer":0,
			"byteLength":96,
			"byteOffset":2536,
			"target":34962
		},
		{
			"buffer":0,
			"byteLength":96,
			"byteOffset":2632,
			"target":34962
		},
		{
			"buffer":0,
			"byteLength":96,
			"byteOffset":2728,
			"target":34962
		},
		{
			"buffer":0,
			"byteLength":192,
			"byteOffset":2824,
			"target":34962
		},
		{
			"buffer":0,
			"byteLength":24,
			"byteOffset":3016,
			"target":34963
		},
		{
			"buffer":0,
			"byteLength":48,
			"byteOffset":3040,
			"target":34962
		},
		{
			"buffer":0,
			"byteLength":48,
			"byteOffset":3088,
			"target":34962
		},
		{
			"buffer":0,
			"byteLength":32,
			"byteOffset":3136,
			"target":34962
		},
		{
			"buffer":0,
			"byteLength":32,
			"byteOffset":3168,
			"target":34962
		},
		{
			"buffer":0,
			"byteLength":32,
			"byteOffset":3200,
			"target":34962
		},
		{
			"buffer":0,
			"byteLength":64,
			"byteOffset":3232,
			"target":34962
		},
		{
			"buffer":0,
			"byteLength":12,
			"byteOffset":3296,
			"target":34963
		},
		{
			"buffer":0,
			"byteLength":144,
			"byteOffset":3308,
			"target":34962
		},
		{
			"buffer":0,
			"byteLength":144,
			"byteOffset":3452,
			"target":34962
		},
		{
			"buffer":0,
			"byteLength":96,
			"byteOffset":3596,
			"target":34962
		},
		{
			"buffer":0,
			"byteLength":96,
			"byteOffset":3692,
			"target":34962
		},
		{
			"buffer":0,
			"byteLength":96,
			"byteOffset":3788,
			"target":34962
		},
		{
			"buffer":0,
			"byteLength":192,
			"byteOffset":3884,
			"target":34962
		},
		{
			"buffer":0,
			"byteLength":24,
			"byteOffset":4076,
			"target":34963
		},
		{
			"buffer":0,
			"byteLength":168,
			"byteOffset":4100,
			"target":34962
		},
		{
			"buffer":0,
			"byteLength":168,
			"byteOffset":4268,
			"target":34962
		},
		{
			"buffer":0,
			"byteLength":112,
			"byteOffset":4436,
			"target":34962
		},
		{
			"buffer":0,
			"byteLength":112,
			"byteOffset":4548,
			"target":34962
		},
		{
			"buffer":0,
			"byteLength":112,
			"byteOffset":4660,
			"target":34962
		},
		{
			"buffer":0,
			"byteLength":224,
			"byteOffset":4772,
			"target":34962
		},
		{
			"buffer":0,
			"byteLength":36,
			"byteOffset":4996,
			"target":34963
		},
		{
			"buffer":0,
			"byteLength":48,
			"byteOffset":5032,
			"target":34962
		},
		{
			"buffer":0,
			"byteLength":48,
			"byteOffset":5080,
			"target":34962
		},
		{
			"buffer":0,
			"byteLength":32,
			"byteOffset":5128,
			"target":34962
		},
		{
			"buffer":0,
			"byteLength":32,
			"byteOffset":5160,
			"target":34962
		},
		{
			"buffer":0,
			"byteLength":32,
			"byteOffset":5192,
			"target":34962
		},
		{
			"buffer":0,
			"byteLength":64,
			"byteOffset":5224,
			"target":34962
		},
		{
			"buffer":0,
			"byteLength":48,
			"byteOffset":5288,
			"target":34962
		},
		{
			"buffer":0,
			"byteLength":48,
			"byteOffset":5336,
			"target":34962
		},
		{
			"buffer":0,
			"byteLength":32,
			"byteOffset":5384,
			"target":34962
		},
		{
			"buffer":0,
			"byteLength":32,
			"byteOffset":5416,
			"target":34962
		},
		{
			"buffer":0,
			"byteLength":32,
			"byteOffset":5448,
			"target":34962
		},
		{
			"buffer":0,
			"byteLength":64,
			"byteOffset":5480,
			"target":34962
		},
		{
			"buffer":0,
			"byteLength":48,
			"byteOffset":5544,
			"target":34962
		},
		{
			"buffer":0,
			"byteLength":48,
			"byteOffset":5592,
			"target":34962
		},
		{
			"buffer":0,
			"byteLength":32,
			"byteOffset":5640,
			"target":34962
		},
		{
			"buffer":0,
			"byteLength":32,
			"byteOffset":5672,
			"target":34962
		},
		{
			"buffer":0,
			"byteLength":32,
			"byteOffset":5704,
			"target":34962
		},
		{
			"buffer":0,
			"byteLength":64,
			"byteOffset":5736,
			"target":34962
		},
		{
			"buffer":0,
			"byteLength":72,
			"byteOffset":5800,
			"target":34962
		},
		{
			"buffer":0,
			"byteLength":72,
			"byteOffset":5872,
			"target":34962
		},
		{
			"buffer":0,
			"byteLength":48,
			"byteOffset":5944,
			"target":34962
		},
		{
			"buffer":0,
			"byteLength":48,
			"byteOffset":5992,
			"target":34962
		},
		{
			"buffer":0,
			"byteLength":48,
			"byteOffset":6040,
			"target":34962
		},
		{
			"buffer":0,
			"byteLength":96,
			"byteOffset":6088,
			"target":34962
		},
		{
			"buffer":0,
			"byteLength":12,
			"byteOffset":6184,
			"target":34963
		},
		{
			"buffer":0,
			"byteLength":6180,
			"byteOffset":6196,
			"target":34962
		},
		{
			"buffer":0,
			"byteLength":6180,
			"byteOffset":12376,
			"target":34962
		},
		{
			"buffer":0,
			"byteLength":4120,
			"byteOffset":18556,
			"target":34962
		},
		{
			"buffer":0,
			"byteLength":4120,
			"byteOffset":22676,
			"target":34962
		},
		{
			"buffer":0,
			"byteLength":4120,
			"byteOffset":26796,
			"target":34962
		},
		{
			"buffer":0,
			"byteLength":8240,
			"byteOffset":30916,
			"target":34962
		},
		{
			"buffer":0,
			"byteLength":1152,
			"byteOffset":39156,
			"target":34963
		},
		{
			"buffer":0,
			"byteLength":6360,
			"byteOffset":40308,
			"target":34962
		},
		{
			"buffer":0,
			"byteLength":6360,
			"byteOffset":46668,
			"target":34962
		},
		{
			"buffer":0,
			"byteLength":4240,
			"byteOffset":53028,
			"target":34962
		},
		{
			"buffer":0,
			"byteLength":4240,
			"byteOffset":57268,
			"target":34962
		},
		{
			"buffer":0,
			"byteLength":4240,
			"byteOffset":61508,
			"target":34962
		},
		{
			"buffer":0,
			"byteLength":8480,
			"byteOffset":65748,
			"target":34962
		},
		{
			"buffer":0,
			"byteLength":1152,
			"byteOffset":74228,
			"target":34963
		}
	],
	"samplers":[
		{
			"magFilter":9729,
			"minFilter":9987
		}
	],
	"buffers":[
		{
			"byteLength":75380,
			"uri":"FirstStage.bin"
		}
	]
}
