{
	"asset":{
		"generator":"Khronos glTF Blender I/O v3.6.27",
		"version":"2.0"
	},
	"scene":0,
	"scenes":[
		{
			"name":"Scene",
			"nodes":[
				0,
				1,
				2
			]
		}
	],
	"nodes":[
		{
			"mesh":0,
			"name":"StageMap",
			"scale":[
				3.99662184715271,
				3.99662184715271,
				3.99662184715271
			],
			"translation":[
				17.91921615600586,
				-1.0944805145263672,
				1.195502519607544
			]
		},
		{
			"mesh":1,
			"name":"Cube",
			"scale":[
				3.99662184715271,
				3.99662184715271,
				3.99662184715271
			],
			"translation":[
				11.798958778381348,
				1.1579087972640991,
				-5.549219131469727
			]
		},
		{
			"mesh":2,
			"name":"Wall",
			"scale":[
				3.99662184715271,
				3.99662184715271,
				3.99662184715271
			],
			"translation":[
				-47.6575927734375,
				1.0322859287261963,
				3.1568665504455566
			]
		}
	],
	"materials":[
		{
			"doubleSided":true,
			"name":"mat1",
			"normalTexture":{
				"index":0
			},
			"pbrMetallicRoughness":{
				"baseColorTexture":{
					"index":1
				},
				"metallicFactor":0,
				"roughnessFactor":0.5
			}
		},
		{
			"doubleSided":true,
			"name":"Material",
			"normalTexture":{
				"index":2
			},
			"pbrMetallicRoughness":{
				"baseColorTexture":{
					"index":3
				},
				"metallicFactor":0,
				"roughnessFactor":0.5
			}
		}
	],
	"meshes":[
		{
			"name":"obj1",
			"primitives":[
				{
					"attributes":{
						"COLOR_0":0,
						"POSITION":1,
						"NORMAL":2,
						"TEXCOORD_0":3,
						"TANGENT":4
					},
					"indices":5,
					"material":0
				},
				{
					"attributes":{
						"COLOR_0":6,
						"POSITION":7,
						"NORMAL":8,
						"TEXCOORD_0":9,
						"TANGENT":10
					},
					"indices":11,
					"material":1
				}
			]
		},
		{
			"name":"obj1.001",
			"primitives":[
				{
					"attributes":{
						"POSITION":12,
						"NORMAL":13,
						"TEXCOORD_0":14,
						"TANGENT":15
					},
					"indices":16,
					"material":1
				}
			]
		},
		{
			"name":"obj1.002",
			"primitives":[
				{
					"attributes":{
						"POSITION":17,
						"NORMAL":18,
						"TEXCOORD_0":19,
						"TANGENT":20
					},
					"indices":21,
					"material":1
				}
			]
		}
	],
	"textures":[
		{
			"sampler":0,
			"source":0
		},
		{
			"sampler":0,
			"source":1
		},
		{
			"sampler":0,
			"source":2
		},
		{
			"sampler":0,
			"source":3
		}
	],
	"images":[
		{
			"mimeType":"image/png",
			"name":"grs.normal",
			"uri":"grs_normal.png"
		},
		{
			"mimeType":"image/png",
			"name":"grs",
			"uri":"grs.png"
		},
		{
			"mimeType":"image/png",
			"name":"stone.normal",
			"uri":"stone_normal.png"
		},
		{
			"mimeType":"image/png",
			"name":"stone",
			"uri":"stone.png"
		}
	],
	"accessors":[
		{
			"bufferView":0,
			"componentType":5123,
			"count":8944,
			"normalized":true,
			"type":"VEC4"
		},
		{
			"bufferView":1,
			"componentType":5126,
			"count":8944,
			"max":[
				29.999971389770508,
				4.160206317901611,
				29.999971389770508
			],
			"min":[
				-29.999971389770508,
				-1.2048132419586182,
				-29.999971389770508
			],
			"type":"VEC3"
		},
		{
			"bufferView":2,
			"componentType":5126,
			"count":8944,
			"type":"VEC3"
		},
		{
			"bufferView":3,
			"componentType":5126,
			"count":8944,
			"type":"VEC2"
		},
		{
			"bufferView":4,
			"componentType":5126,
			"count":8944,
			"type":"VEC4"
		},
		{
			"bufferView":5,
			"componentType":5123,
			"count":13416,
			"type":"SCALAR"
		},
		{
			"bufferView":6,
			"componentType":5123,
			"count":1056,
			"normalized":true,
			"type":"VEC4"
		},
		{
			"bufferView":7,
			"componentType":5126,
			"count":1056,
			"max":[
				29.999971389770508,
				3.7477684020996094,
				19.199981689453125
			],
			"min":[
				-29.999971389770508,
				-0.8501142263412476,
				-28.799972534179688
			],
			"type":"VEC3"
		},
		{
			"bufferView":8,
			"componentType":5126,
			"count":1056,
			"type":"VEC3"
		},
		{
			"bufferView":9,
			"componentType":5126,
			"count":1056,
			"type":"VEC2"
		},
		{
			"bufferView":10,
			"componentType":5126,
			"count":1056,
			"type":"VEC4"
		},
		{
			"bufferView":11,
			"componentType":5123,
			"count":1584,
			"type":"SCALAR"
		},
		{
			"bufferView":12,
			"componentType":5126,
			"count":24,
			"max":[
				0.5768927335739136,
				0.5768926739692688,
				0.5768929719924927
			],
			"min":[
				-0.5768924951553345,
				-0.5768927335739136,
				-0.5768927335739136
			],
			"type":"VEC3"
		},
		{
			"bufferView":13,
			"componentType":5126,
			"count":24,
			"type":"VEC3"
		},
		{
			"bufferView":14,
			"componentType":5126,
			"count":24,
			"type":"VEC2"
		},
		{
			"bufferView":15,
			"componentType":5126,
			"count":24,
			"type":"VEC4"
		},
		{
			"bufferView":16,
			"componentType":5123,
			"count":36,
			"type":"SCALAR"
		},
		{
			"bufferView":17,
			"componentType":5126,
			"count":34,
			"max":[
				10.102182388305664,
				2.0272951126098633,
				0.5468654632568359
			],
			"min":[
				-4.547977447509766,
				-2.027294874191284,
				-0.5468664169311523
			],
			"type":"VEC3"
		},
		{
			"bufferView":18,
			"componentType":5126,
			"count":34,
			"type":"VEC3"
		},
		{
			"bufferView":19,
			"componentType":5126,
			"count":34,
			"type":"VEC2"
		},
		{
			"bufferView":20,
			"componentType":5126,
			"count":34,
			"type":"VEC4"
		},
		{
			"bufferView":21,
			"componentType":5123,
			"count":60,
			"type":"SCALAR"
		}
	],
	"bufferViews":[
		{
			"buffer":0,
			"byteLength":71552,
			"byteOffset":0,
			"target":34962
		},
		{
			"buffer":0,
			"byteLength":107328,
			"byteOffset":71552,
			"target":34962
		},
		{
			"buffer":0,
			"byteLength":107328,
			"byteOffset":178880,
			"target":34962
		},
		{
			"buffer":0,
			"byteLength":71552,
			"byteOffset":286208,
			"target":34962
		},
		{
			"buffer":0,
			"byteLength":143104,
			"byteOffset":357760,
			"target":34962
		},
		{
			"buffer":0,
			"byteLength":26832,
			"byteOffset":500864,
			"target":34963
		},
		{
			"buffer":0,
			"byteLength":8448,
			"byteOffset":527696,
			"target":34962
		},
		{
			"buffer":0,
			"byteLength":12672,
			"byteOffset":536144,
			"target":34962
		},
		{
			"buffer":0,
			"byteLength":12672,
			"byteOffset":548816,
			"target":34962
		},
		{
			"buffer":0,
			"byteLength":8448,
			"byteOffset":561488,
			"target":34962
		},
		{
			"buffer":0,
			"byteLength":16896,
			"byteOffset":569936,
			"target":34962
		},
		{
			"buffer":0,
			"byteLength":3168,
			"byteOffset":586832,
			"target":34963
		},
		{
			"buffer":0,
			"byteLength":288,
			"byteOffset":590000,
			"target":34962
		},
		{
			"buffer":0,
			"byteLength":288,
			"byteOffset":590288,
			"target":34962
		},
		{
			"buffer":0,
			"byteLength":192,
			"byteOffset":590576,
			"target":34962
		},
		{
			"buffer":0,
			"byteLength":384,
			"byteOffset":590768,
			"target":34962
		},
		{
			"buffer":0,
			"byteLength":72,
			"byteOffset":591152,
			"target":34963
		},
		{
			"buffer":0,
			"byteLength":408,
			"byteOffset":591224,
			"target":34962
		},
		{
			"buffer":0,
			"byteLength":408,
			"byteOffset":591632,
			"target":34962
		},
		{
			"buffer":0,
			"byteLength":272,
			"byteOffset":592040,
			"target":34962
		},
		{
			"buffer":0,
			"byteLength":544,
			"byteOffset":592312,
			"target":34962
		},
		{
			"buffer":0,
			"byteLength":120,
			"byteOffset":592856,
			"target":34963
		}
	],
	"samplers":[
		{
			"magFilter":9729,
			"minFilter":9987
		}
	],
	"buffers":[
		{
			"byteLength":592976,
			"uri":"stageMap.bin"
		}
	]
}
