{
	"asset":{
		"generator":"Khronos glTF Blender I/O v3.6.27",
		"version":"2.0"
	},
	"scene":0,
	"scenes":[
		{
			"name":"Scene",
			"nodes":[
				21
			]
		}
	],
	"nodes":[
		{
			"name":"Bone.004",
			"rotation":[
				-0.017692847177386284,
				0.0009592798887751997,
				-0.0032351412810385227,
				0.9998378157615662
			],
			"scale":[
				0.9999999403953552,
				1,
				0.9999998807907104
			],
			"translation":[
				3.6598066799342632e-09,
				0.31482431292533875,
				-7.457856554538012e-09
			]
		},
		{
			"children":[
				0
			],
			"name":"Bone.003",
			"rotation":[
				0.012292030267417431,
				0.002878607716411352,
				-0.008012369275093079,
				0.9998881816864014
			],
			"scale":[
				1,
				0.9999999403953552,
				0.9999998807907104
			],
			"translation":[
				0,
				0.6382474899291992,
				0
			]
		},
		{
			"children":[
				1
			],
			"name":"Bone.002",
			"rotation":[
				0,
				0.005898440256714821,
				0,
				0.9999825954437256
			],
			"translation":[
				0,
				0.7700493335723877,
				0
			]
		},
		{
			"name":"Bone.001_L.002",
			"rotation":[
				-0.0003562342026270926,
				-1.1935718191580236e-07,
				0.022960035130381584,
				0.9997363090515137
			],
			"translation":[
				2.3631220358311111e-07,
				1.2487727403640747,
				5.372072564568953e-09
			]
		},
		{
			"children":[
				3
			],
			"name":"Bone.001_L.001",
			"rotation":[
				0.007871926762163639,
				3.0748708468308905e-07,
				-0.5073590874671936,
				0.8616988062858582
			],
			"scale":[
				0.9999999403953552,
				1.0000001192092896,
				1
			],
			"translation":[
				-2.440931154978898e-07,
				0.9393978714942932,
				2.170296831138785e-09
			]
		},
		{
			"children":[
				4
			],
			"name":"Bone.001_L",
			"rotation":[
				0.004706255160272121,
				0.006263557355850935,
				-0.7070733308792114,
				0.7070968151092529
			],
			"scale":[
				1,
				0.9999999403953552,
				0.9999998807907104
			],
			"translation":[
				0,
				0.7700493335723877,
				0
			]
		},
		{
			"name":"Bone.001_R.002",
			"rotation":[
				-0.0003562338533811271,
				1.2005540384052438e-07,
				-0.022960036993026733,
				0.9997363090515137
			],
			"scale":[
				1,
				0.9999999403953552,
				1.0000001192092896
			],
			"translation":[
				-2.3632345858004555e-07,
				1.2487727403640747,
				3.7152716458876966e-09
			]
		},
		{
			"children":[
				6
			],
			"name":"Bone.001_R.001",
			"rotation":[
				0.007871927693486214,
				-3.0748708468308905e-07,
				0.5073590874671936,
				0.8616988062858582
			],
			"scale":[
				0.9999999403953552,
				1,
				0.9999998807907104
			],
			"translation":[
				2.440889943500224e-07,
				0.9393978714942932,
				-1.5549008747228754e-09
			]
		},
		{
			"children":[
				7
			],
			"name":"Bone.001_R",
			"rotation":[
				0.006263242103159428,
				-0.004706491716206074,
				0.707061231136322,
				0.7071089148521423
			],
			"scale":[
				1.0000001192092896,
				0.9999999403953552,
				0.9999998807907104
			],
			"translation":[
				0,
				0.7700493335723877,
				0
			]
		},
		{
			"children":[
				2,
				5,
				8
			],
			"name":"Bone.001",
			"rotation":[
				0,
				-0.0011010168818756938,
				0,
				0.9999994039535522
			],
			"scale":[
				0.9999999403953552,
				0.9999999403953552,
				0.9999999403953552
			],
			"translation":[
				0,
				0.6442036628723145,
				0
			]
		},
		{
			"children":[
				9
			],
			"name":"Bone",
			"scale":[
				0.9999999403953552,
				0.9999999403953552,
				0.9999999403953552
			]
		},
		{
			"name":"Bone_L.002",
			"rotation":[
				-0.002857720712199807,
				-4.595203063217923e-05,
				-7.709206693107262e-05,
				0.9999959468841553
			],
			"scale":[
				1.0000001192092896,
				1.0000001192092896,
				1.0000001192092896
			],
			"translation":[
				3.92901711165905e-10,
				1.7238490581512451,
				2.3283064365386963e-09
			]
		},
		{
			"children":[
				11
			],
			"name":"Bone_L.001",
			"rotation":[
				-0.5024898648262024,
				0.009890424087643623,
				-0.007827376946806908,
				0.8644911050796509
			],
			"scale":[
				1,
				1,
				0.9999999403953552
			],
			"translation":[
				-1.1641532182693481e-10,
				0.547701358795166,
				7.450580596923828e-08
			]
		},
		{
			"children":[
				12
			],
			"name":"Bone_L",
			"rotation":[
				-0.608093798160553,
				-0.3579862117767334,
				-0.6106138825416565,
				0.35946977138519287
			],
			"scale":[
				1,
				1,
				0.9999998807907104
			]
		},
		{
			"name":"Bone_R.002",
			"rotation":[
				-0.002857720712199807,
				4.595203063217923e-05,
				7.709206693107262e-05,
				0.9999959468841553
			],
			"scale":[
				1.0000001192092896,
				1.0000001192092896,
				1.0000001192092896
			],
			"translation":[
				-3.92901711165905e-10,
				1.7238490581512451,
				2.3283064365386963e-09
			]
		},
		{
			"children":[
				14
			],
			"name":"Bone_R.001",
			"rotation":[
				-0.5024898648262024,
				-0.009890424087643623,
				0.007827376946806908,
				0.8644911050796509
			],
			"scale":[
				1,
				1,
				0.9999999403953552
			],
			"translation":[
				1.1641532182693481e-10,
				0.547701358795166,
				7.450580596923828e-08
			]
		},
		{
			"children":[
				15
			],
			"name":"Bone_R",
			"rotation":[
				-0.608093798160553,
				0.3579862117767334,
				0.6106138825416565,
				0.35946977138519287
			],
			"scale":[
				1,
				1,
				0.9999998807907104
			]
		},
		{
			"mesh":0,
			"name":"\u7acb\u65b9\u4f53",
			"skin":0
		},
		{
			"mesh":1,
			"name":"\u7acb\u65b9\u4f53.001",
			"skin":0
		},
		{
			"mesh":2,
			"name":"\u7acb\u65b9\u4f53.002",
			"skin":0
		},
		{
			"mesh":3,
			"name":"\u7acb\u65b9\u4f53.003",
			"skin":0
		},
		{
			"children":[
				17,
				18,
				19,
				20,
				10,
				13,
				16
			],
			"name":"\u30a2\u30fc\u30de\u30c1\u30e5\u30a2",
			"scale":[
				0.45680397748947144,
				0.45680397748947144,
				0.45680397748947144
			],
			"translation":[
				0,
				0.759880006313324,
				0
			]
		}
	],
	"materials":[
		{
			"doubleSided":true,
			"name":"\u30de\u30c6\u30ea\u30a2\u30eb",
			"pbrMetallicRoughness":{
				"baseColorFactor":[
					0.800000011920929,
					0.800000011920929,
					0.800000011920929,
					1
				],
				"metallicFactor":0,
				"roughnessFactor":0.4000000059604645
			}
		},
		{
			"doubleSided":true,
			"name":"\u30de\u30c6\u30ea\u30a2\u30eb.001",
			"pbrMetallicRoughness":{
				"baseColorTexture":{
					"index":0
				},
				"metallicFactor":0,
				"roughnessFactor":0.5
			}
		},
		{
			"doubleSided":true,
			"name":"\u30de\u30c6\u30ea\u30a2\u30eb.003",
			"pbrMetallicRoughness":{
				"baseColorTexture":{
					"index":1
				},
				"metallicFactor":0,
				"roughnessFactor":0.5
			}
		}
	],
	"meshes":[
		{
			"name":"\u7acb\u65b9\u4f53",
			"primitives":[
				{
					"attributes":{
						"POSITION":0,
						"NORMAL":1,
						"TEXCOORD_0":2,
						"JOINTS_0":3,
						"WEIGHTS_0":4
					},
					"indices":5,
					"material":0
				}
			]
		},
		{
			"name":"\u7acb\u65b9\u4f53.002",
			"primitives":[
				{
					"attributes":{
						"POSITION":7,
						"NORMAL":8,
						"TEXCOORD_0":9,
						"JOINTS_0":10,
						"WEIGHTS_0":11
					},
					"indices":12,
					"material":0
				}
			]
		},
		{
			"name":"\u7acb\u65b9\u4f53.003",
			"primitives":[
				{
					"attributes":{
						"POSITION":13,
						"NORMAL":14,
						"TEXCOORD_0":15,
						"JOINTS_0":16,
						"WEIGHTS_0":17
					},
					"indices":18,
					"material":1
				}
			]
		},
		{
			"name":"\u7acb\u65b9\u4f53.004",
			"primitives":[
				{
					"attributes":{
						"POSITION":19,
						"NORMAL":20,
						"TEXCOORD_0":21,
						"JOINTS_0":22,
						"WEIGHTS_0":23
					},
					"indices":5,
					"material":2
				}
			]
		}
	],
	"textures":[
		{
			"sampler":0,
			"source":0
		},
		{
			"sampler":0,
			"source":0
		}
	],
	"images":[
		{
			"mimeType":"image/png",
			"name":"Dice",
			"uri":"Dice.png"
		}
	],
	"skins":[
		{
			"inverseBindMatrices":6,
			"joints":[
				10,
				9,
				2,
				1,
				0,
				5,
				4,
				3,
				8,
				7,
				6,
				13,
				12,
				11,
				16,
				15,
				14
			],
			"name":"\u30a2\u30fc\u30de\u30c1\u30e5\u30a2"
		}
	],
	"accessors":[
		{
			"bufferView":0,
			"componentType":5126,
			"count":30,
			"max":[
				0,
				0.7641772031784058,
				0.20413662493228912
			],
			"min":[
				-0.4291270673274994,
				-0.9523310661315918,
				-0.20413662493228912
			],
			"type":"VEC3"
		},
		{
			"bufferView":1,
			"componentType":5126,
			"count":30,
			"type":"VEC3"
		},
		{
			"bufferView":2,
			"componentType":5126,
			"count":30,
			"type":"VEC2"
		},
		{
			"bufferView":3,
			"componentType":5121,
			"count":30,
			"type":"VEC4"
		},
		{
			"bufferView":4,
			"componentType":5126,
			"count":30,
			"type":"VEC4"
		},
		{
			"bufferView":5,
			"componentType":5123,
			"count":48,
			"type":"SCALAR"
		},
		{
			"bufferView":6,
			"componentType":5126,
			"count":17,
			"type":"MAT4"
		},
		{
			"bufferView":7,
			"componentType":5126,
			"count":82,
			"max":[
				0.0019573825411498547,
				1.8408747911453247,
				0.20413662493228912
			],
			"min":[
				-0.4291270673274994,
				0.517693817615509,
				-0.20413662493228912
			],
			"type":"VEC3"
		},
		{
			"bufferView":8,
			"componentType":5126,
			"count":82,
			"type":"VEC3"
		},
		{
			"bufferView":9,
			"componentType":5126,
			"count":82,
			"type":"VEC2"
		},
		{
			"bufferView":10,
			"componentType":5121,
			"count":82,
			"type":"VEC4"
		},
		{
			"bufferView":11,
			"componentType":5126,
			"count":82,
			"type":"VEC4"
		},
		{
			"bufferView":12,
			"componentType":5123,
			"count":180,
			"type":"SCALAR"
		},
		{
			"bufferView":13,
			"componentType":5126,
			"count":20,
			"max":[
				0,
				2.295797348022461,
				0.26329270005226135
			],
			"min":[
				-0.26329270005226135,
				1.7692118883132935,
				-0.26329270005226135
			],
			"type":"VEC3"
		},
		{
			"bufferView":14,
			"componentType":5126,
			"count":20,
			"type":"VEC3"
		},
		{
			"bufferView":15,
			"componentType":5126,
			"count":20,
			"type":"VEC2"
		},
		{
			"bufferView":16,
			"componentType":5121,
			"count":20,
			"type":"VEC4"
		},
		{
			"bufferView":17,
			"componentType":5126,
			"count":20,
			"type":"VEC4"
		},
		{
			"bufferView":18,
			"componentType":5123,
			"count":30,
			"type":"SCALAR"
		},
		{
			"bufferView":19,
			"componentType":5126,
			"count":30,
			"max":[
				-0.39399453997612,
				1.574179768562317,
				0.11643887311220169
			],
			"min":[
				-1.0848807096481323,
				0.4051026999950409,
				-0.11643887311220169
			],
			"type":"VEC3"
		},
		{
			"bufferView":20,
			"componentType":5126,
			"count":30,
			"type":"VEC3"
		},
		{
			"bufferView":21,
			"componentType":5126,
			"count":30,
			"type":"VEC2"
		},
		{
			"bufferView":22,
			"componentType":5121,
			"count":30,
			"type":"VEC4"
		},
		{
			"bufferView":23,
			"componentType":5126,
			"count":30,
			"type":"VEC4"
		}
	],
	"bufferViews":[
		{
			"buffer":0,
			"byteLength":360,
			"byteOffset":0,
			"target":34962
		},
		{
			"buffer":0,
			"byteLength":360,
			"byteOffset":360,
			"target":34962
		},
		{
			"buffer":0,
			"byteLength":240,
			"byteOffset":720,
			"target":34962
		},
		{
			"buffer":0,
			"byteLength":120,
			"byteOffset":960,
			"target":34962
		},
		{
			"buffer":0,
			"byteLength":480,
			"byteOffset":1080,
			"target":34962
		},
		{
			"buffer":0,
			"byteLength":96,
			"byteOffset":1560,
			"target":34963
		},
		{
			"buffer":0,
			"byteLength":1088,
			"byteOffset":1656
		},
		{
			"buffer":0,
			"byteLength":984,
			"byteOffset":2744,
			"target":34962
		},
		{
			"buffer":0,
			"byteLength":984,
			"byteOffset":3728,
			"target":34962
		},
		{
			"buffer":0,
			"byteLength":656,
			"byteOffset":4712,
			"target":34962
		},
		{
			"buffer":0,
			"byteLength":328,
			"byteOffset":5368,
			"target":34962
		},
		{
			"buffer":0,
			"byteLength":1312,
			"byteOffset":5696,
			"target":34962
		},
		{
			"buffer":0,
			"byteLength":360,
			"byteOffset":7008,
			"target":34963
		},
		{
			"buffer":0,
			"byteLength":240,
			"byteOffset":7368,
			"target":34962
		},
		{
			"buffer":0,
			"byteLength":240,
			"byteOffset":7608,
			"target":34962
		},
		{
			"buffer":0,
			"byteLength":160,
			"byteOffset":7848,
			"target":34962
		},
		{
			"buffer":0,
			"byteLength":80,
			"byteOffset":8008,
			"target":34962
		},
		{
			"buffer":0,
			"byteLength":320,
			"byteOffset":8088,
			"target":34962
		},
		{
			"buffer":0,
			"byteLength":60,
			"byteOffset":8408,
			"target":34963
		},
		{
			"buffer":0,
			"byteLength":360,
			"byteOffset":8468,
			"target":34962
		},
		{
			"buffer":0,
			"byteLength":360,
			"byteOffset":8828,
			"target":34962
		},
		{
			"buffer":0,
			"byteLength":240,
			"byteOffset":9188,
			"target":34962
		},
		{
			"buffer":0,
			"byteLength":120,
			"byteOffset":9428,
			"target":34962
		},
		{
			"buffer":0,
			"byteLength":480,
			"byteOffset":9548,
			"target":34962
		}
	],
	"samplers":[
		{
			"magFilter":9729,
			"minFilter":9987
		}
	],
	"buffers":[
		{
			"byteLength":10028,
			"uri":"player_original.bin"
		}
	]
}
