{
	"asset":{
		"generator":"Khronos glTF Blender I/O v3.6.27",
		"version":"2.0"
	},
	"scene":0,
	"scenes":[
		{
			"name":"Scene",
			"nodes":[
				0
			]
		}
	],
	"nodes":[
		{
			"mesh":0,
			"name":"Back_part_Low_Bullet_45_0",
			"rotation":[
				0,
				0.7071066498756409,
				0,
				0.7071069478988647
			],
			"scale":[
				1.8037394285202026,
				1.8037396669387817,
				1.8037394285202026
			]
		}
	],
	"materials":[
		{
			"doubleSided":true,
			"name":"Bullet_45",
			"normalTexture":{
				"index":0
			},
			"pbrMetallicRoughness":{
				"baseColorTexture":{
					"index":1
				},
				"metallicRoughnessTexture":{
					"index":2
				}
			}
		}
	],
	"meshes":[
		{
			"name":"Back_part_Low_Bullet_45_0",
			"primitives":[
				{
					"attributes":{
						"POSITION":0,
						"NORMAL":1,
						"TEXCOORD_0":2,
						"TANGENT":3
					},
					"indices":4,
					"material":0
				}
			]
		}
	],
	"textures":[
		{
			"sampler":0,
			"source":0
		},
		{
			"sampler":0,
			"source":1
		},
		{
			"sampler":0,
			"source":2
		}
	],
	"images":[
		{
			"mimeType":"image/png",
			"name":"Bullet_45_normal",
			"uri":"Bullet_45_normal.png"
		},
		{
			"mimeType":"image/png",
			"name":"Bullet_45_baseColor",
			"uri":"Bullet_45_baseColor.png"
		},
		{
			"mimeType":"image/png",
			"name":"Bullet_45_metallicRoughness",
			"uri":"Bullet_45_metallicRoughness.png"
		}
	],
	"accessors":[
		{
			"bufferView":0,
			"componentType":5126,
			"count":2618,
			"max":[
				1.621532678604126,
				0.6044214963912964,
				0.6086786985397339
			],
			"min":[
				-1.6215332746505737,
				-0.6044214963912964,
				-0.6001616716384888
			],
			"type":"VEC3"
		},
		{
			"bufferView":1,
			"componentType":5126,
			"count":2618,
			"type":"VEC3"
		},
		{
			"bufferView":2,
			"componentType":5126,
			"count":2618,
			"type":"VEC2"
		},
		{
			"bufferView":3,
			"componentType":5126,
			"count":2618,
			"type":"VEC4"
		},
		{
			"bufferView":4,
			"componentType":5123,
			"count":7680,
			"type":"SCALAR"
		}
	],
	"bufferViews":[
		{
			"buffer":0,
			"byteLength":31416,
			"byteOffset":0,
			"target":34962
		},
		{
			"buffer":0,
			"byteLength":31416,
			"byteOffset":31416,
			"target":34962
		},
		{
			"buffer":0,
			"byteLength":20944,
			"byteOffset":62832,
			"target":34962
		},
		{
			"buffer":0,
			"byteLength":41888,
			"byteOffset":83776,
			"target":34962
		},
		{
			"buffer":0,
			"byteLength":15360,
			"byteOffset":125664,
			"target":34963
		}
	],
	"samplers":[
		{
			"magFilter":9729,
			"minFilter":9987
		}
	],
	"buffers":[
		{
			"byteLength":141024,
			"uri":"bullet.bin"
		}
	]
}
